<svg id="Layer_1" data-name="Layer 1" xmlns="http://www.w3.org/2000/svg" viewBox="0 0 617.05 617.05"><defs><style>.cls-1{fill:#3183e8;}.cls-2{fill:#fff;}</style></defs><rect class="cls-1" width="617.05" height="617.05"/><path class="cls-2" d="M183.82,425.55A21,21,0,0,1,175,443.14a29.93,29.93,0,0,1-9.66,4.53,45.72,45.72,0,0,1-12.15,1.53A64.54,64.54,0,0,1,141.16,448a55.19,55.19,0,0,1-11.35-3.29l2.93-14.19a61.45,61.45,0,0,0,9.66,3,46.84,46.84,0,0,0,10.1,1.09,20.38,20.38,0,0,0,8.27-1.46,5.29,5.29,0,0,0,3.29-5.27,5.12,5.12,0,0,0-3.22-4.9q-3.22-1.55-8.49-3.73-4.24-1.76-8.19-3.59a30,30,0,0,1-7-4.39,20.54,20.54,0,0,1-4.83-6,18.07,18.07,0,0,1-1.83-8.56,20.67,20.67,0,0,1,2.13-9.66,18.45,18.45,0,0,1,5.85-6.73,26.85,26.85,0,0,1,8.78-4A43.5,43.5,0,0,1,158.21,375,60.92,60.92,0,0,1,170,376.11a39.26,39.26,0,0,1,10.9,3.91l-3.07,14.3a59.24,59.24,0,0,0-8.86-3.15,35.47,35.47,0,0,0-9.29-1.25,20.14,20.14,0,0,0-6.81.95,3.87,3.87,0,0,0-2.56,4c0,1.95,1,3.4,3.08,4.38s4.48,2.09,7.31,3.36l7.1,3a35.27,35.27,0,0,1,7.54,4.31,25.74,25.74,0,0,1,6,6.35A16.31,16.31,0,0,1,183.82,425.55Z" transform="translate(5.7 11.36)"/><path class="cls-2" d="M186.16,376.46h11.56V358h20.05v18.44h21.37v15.66H217.77v30.59a14.78,14.78,0,0,0,1.83,7.9q1.83,2.92,7.25,2.93a36.06,36.06,0,0,0,10.83-1.61l1.46,14.2a41.18,41.18,0,0,1-8,2.19,53.49,53.49,0,0,1-9.66.88,26.81,26.81,0,0,1-10.9-2,19.13,19.13,0,0,1-7.32-5.49,22.52,22.52,0,0,1-4.17-8.19,37.68,37.68,0,0,1-1.32-10.25V392.12H186.16Z" transform="translate(5.7 11.36)"/><path class="cls-2" d="M292.41,393.58h-3.36a29.15,29.15,0,0,0-12.44,2.35,19,19,0,0,0-7.91,6.73v45.08h-20V376.46H268v12.59a20,20,0,0,1,6.51-9.81q4.47-3.51,11.93-3.51a22.31,22.31,0,0,1,6,.73Z" transform="translate(5.7 11.36)"/><path class="cls-2" d="M338.37,440.12a35.27,35.27,0,0,1-9.51,6.44A29.72,29.72,0,0,1,316,449.2a22.33,22.33,0,0,1-8.49-1.54,18.54,18.54,0,0,1-6.44-4.24,19.37,19.37,0,0,1-4.1-6.37,21.4,21.4,0,0,1-1.46-8.05q0-9.79,6.58-14.93t18-5.85c2.92-.2,5.95-.34,9.07-.44s6-.19,8.49-.29V405c0-4.59-1.12-8.07-3.37-10.47S328.51,391,323.73,391a40.83,40.83,0,0,0-10.53,1.32,40.16,40.16,0,0,0-8.79,3.36l-4-14.05a47.48,47.48,0,0,1,12.3-4.9A59.62,59.62,0,0,1,327.25,375q14.19,0,22.32,7.75t8.12,23v42H338.37Zm-15.08-4.53a21,21,0,0,0,7.91-1.47,25.76,25.76,0,0,0,6.44-3.65V419.2c-2.05.19-4.25.39-6.59.58s-4.49.44-6.44.73a18.84,18.84,0,0,0-7,2.42q-2.64,1.68-2.64,5.63a6.26,6.26,0,0,0,2.27,5.27A9.67,9.67,0,0,0,323.29,435.59Z" transform="translate(5.7 11.36)"/><path class="cls-2" d="M372.47,376.46h19.17v9.07a26,26,0,0,1,8.78-7.68A26.8,26.8,0,0,1,413.3,375,25.74,25.74,0,0,1,425,377.63a26.35,26.35,0,0,1,9,7.39,34.78,34.78,0,0,1,5.78,11.42,50.25,50.25,0,0,1,2,14.85,42.54,42.54,0,0,1-2.92,16.32A35.05,35.05,0,0,1,431,439.54a32.3,32.3,0,0,1-11.63,7.24,41.56,41.56,0,0,1-14.27,2.42,43.29,43.29,0,0,1-7-.51,48.67,48.67,0,0,1-5.56-1.25v30.44h-20Zm34.1,14.2a16.58,16.58,0,0,0-8.41,2,19.93,19.93,0,0,0-5.64,4.53v35.27a20.25,20.25,0,0,0,4.39,1.1,35.44,35.44,0,0,0,5.27.37q10.24,0,14.93-6.3t4.68-16.24q0-8.93-3.73-14.86T406.57,390.66Z" transform="translate(5.7 11.36)"/><path class="cls-2" d="M450.92,355.68a11.42,11.42,0,0,1,3.22-8.2,11,11,0,0,1,8.34-3.36,11.58,11.58,0,0,1,8.41,19.68,11.14,11.14,0,0,1-8.41,3.44,10.9,10.9,0,0,1-8.34-3.44A11.47,11.47,0,0,1,450.92,355.68Zm1.61,92.06V376.46h20.05v71.28Z" transform="translate(5.7 11.36)"/><path class="cls-2" d="M307.51,145.59l-13.16-8-66.51,38.48.13,11,25.16,14.52,16.43-9.41,3.6-17.48a2.63,2.63,0,0,1,1.27-1.76l57.88-33.33a2.64,2.64,0,0,1,2.66,0l43.2,25a2.65,2.65,0,0,1,1.32,2.3l-.08,50a2.66,2.66,0,0,1-1.34,2.3L320.81,252.1a2.62,2.62,0,0,1-2.05.25l-17.41-4.92-16.29,9.48,0,28.86,9.53,5.5,66.5-38.47,0-15.47,5.3-3.46,0,20.46a2.65,2.65,0,0,1-1.33,2.3l-69.15,40a2.64,2.64,0,0,1-2.66,0l-12.2-7a2.68,2.68,0,0,1-1.33-2.31l0-31.92a2.68,2.68,0,0,1,1.32-2.3l18.59-10.82a2.7,2.7,0,0,1,2.06-.26l17.42,4.93,55-31.56.09-46.91L333.64,145l-55.52,32-3.59,17.49a2.68,2.68,0,0,1-1.29,1.77L254.45,207a2.67,2.67,0,0,1-2.65,0L224,190.94a2.65,2.65,0,0,1-1.33-2.27l-.16-14.07a2.65,2.65,0,0,1,1.32-2.33l69.22-40.05a2.68,2.68,0,0,1,2.71,0l17,10.33Z" transform="translate(5.7 11.36)"/><path class="cls-2" d="M337.33,204.5a2.67,2.67,0,0,1-1.34-.36L325.44,198a2.7,2.7,0,0,1-1.32-2.29V183.55a2.63,2.63,0,0,1,1.33-2.3l10.55-6.1a2.67,2.67,0,0,1,2.65,0l10.58,6a2.64,2.64,0,0,1,1.34,2.3l0,12.25a2.65,2.65,0,0,1-1.32,2.3l-10.56,6.1A2.73,2.73,0,0,1,337.33,204.5Zm-7.89-10.33,7.9,4.6,7.89-4.56V185l-7.91-4.52-7.91,4.56Z" transform="translate(5.7 11.36)"/><path class="cls-2" d="M254.43,225.09a2.66,2.66,0,0,1-1.33-5l9.24-5.34a2.66,2.66,0,1,1,2.66,4.6l-9.25,5.34A2.65,2.65,0,0,1,254.43,225.09Z" transform="translate(5.7 11.36)"/><path class="cls-2" d="M252.44,241.19a2.66,2.66,0,0,1-1.32-5l17.74-10.16a2.66,2.66,0,1,1,2.64,4.62l-17.74,10.15A2.65,2.65,0,0,1,252.44,241.19Z" transform="translate(5.7 11.36)"/><path class="cls-2" d="M255.34,254.38a2.66,2.66,0,0,1-1.31-5l21.4-12A2.66,2.66,0,1,1,278,242l-21.4,12A2.62,2.62,0,0,1,255.34,254.38Z" transform="translate(5.7 11.36)"/></svg>